<svg version="1.1" viewBox="0.0 0.0 1133.3333333333333 1133.3333333333333" fill="none" stroke="none" stroke-linecap="square" stroke-miterlimit="10" xmlns:xlink="http://www.w3.org/1999/xlink" xmlns="http://www.w3.org/2000/svg"><clipPath id="p.0"><path d="m0 0l1133.3334 0l0 1133.3334l-1133.3334 0l0 -1133.3334z" clip-rule="nonzero"/></clipPath><g clip-path="url(#p.0)"><path fill="#000000" fill-opacity="0.0" d="m0 0l1133.3334 0l0 1133.3334l-1133.3334 0z" fill-rule="evenodd"/><path fill="#000000" fill-opacity="0.0" d="m212.28871 438.1391l724.7559 0l0 130.45673l-724.7559 0z" fill-rule="evenodd"/><path fill="#000000" d="m276.22623 479.34598q-1.125 1.78125 -3.0 5.484375l-8.0625 19.921875q-4.6875 11.2031555 -8.8125 19.59378l-5.8593903 10.453125l-2.484375 5.0625q-1.546875 2.71875 -4.171875 2.71875q-1.828125 0 -3.328125 -1.359375q-1.5 -1.359375 -1.5 -3.375q0 -1.59375 4.40625 -9.984375l5.765625 -10.546875q-8.390625 -10.8281555 -10.875 -17.06253q-2.109375 -5.296875 -7.03125 -12.703125q-6.75 -10.125 -7.921875 -12.234375q-0.703125 -1.265625 -0.703125 -2.53125q0 -2.015625 1.46875 -3.390625q1.484375 -1.390625 3.359375 -1.390625q2.296875 0 3.84375 2.203125l3.75 5.8125q4.96875 7.359375 6.5625 10.03125q3.515625 5.765625 5.484375 10.6875q1.546875 3.890625 6.609375 10.640625l10.73439 -26.15625q1.828125 -3.234375 5.0625 -9.984375q1.3125 -3.1875 4.359375 -3.1875q1.875 0 3.34375 1.3125q1.484375 1.3125 1.484375 3.375q0 2.15625 -2.484375 6.609375zm43.640625 62.81253q-13.21875 0 -22.40625 -7.921875q-9.75 -8.4375 -9.75 -21.75q0 -16.21878 9.609375 -29.484406q10.734375 -14.71875 26.765625 -14.71875q15.421875 0 22.921875 6.9375q7.828125 7.21875 7.828125 22.78125q0 16.21878 -8.8125 29.25003q-10.125 14.90625 -26.15625 14.90625zm4.21875 -64.265656q-11.484375 0 -19.453125 11.4375q-7.359375 10.5 -7.359375 23.15628q0 9.046875 6.703125 14.71875q6.421875 5.34375 15.890625 5.34375q11.390625 0 18.796875 -11.484375q6.609375 -10.2656555 6.609375 -23.06253q0 -11.203125 -5.015625 -15.75q-4.78125 -4.359375 -16.171875 -4.359375zm71.859375 63.28128q-14.578125 0 -21.75 -8.390625q-5.8125 -6.75 -7.3125 -19.96875q-0.703125 -5.9531555 -0.703125 -23.765656q0 -6.5625 0.28125 -10.59375q0.28125 -4.265625 0.84375 -5.953125q1.171875 -3.421875 4.21875 -3.421875q4.3125 0 4.3125 7.921875l0 27.515625q0 28.40628 19.875 28.40628q18.703125 0 18.703125 -47.81253q0 -1.78125 0 -4.59375q-0.046875 -2.8125 -0.046875 -3.75q0 -2.90625 1.03125 -5.109375q1.3125 -2.8125 3.890625 -2.8125q4.6875 0 4.6875 6.421875q0 1.921875 0.046875 5.8125q0 3.890625 0 5.8125q0 54.28128 -28.078125 54.28128zm138.56247 2.015625q-2.53125 0 -4.171875 -2.625q-1.40625 -2.25 -2.53125 -7.5l-1.6875 -8.0625q-1.921875 -7.5 -6.09375 -33.09378l-9.3749695 28.265656l-2.765625 8.90625q-1.6875 5.296875 -3.515625 8.671875q-1.96875 3.5625 -5.296875 3.5625q-2.765625 0 -4.359375 -3.0q-1.03125 -1.96875 -1.875 -5.015625l-1.359375 -5.203125q-4.734375 -16.546906 -8.34375 -35.43753l-1.6875 8.390625l-6.046875 24.75003q-0.375 4.359375 -2.34375 12.890625q-1.40625 3.65625 -4.640625 3.65625q-2.296875 0 -3.65625 -1.640625q-1.171875 -1.40625 -1.171875 -3.46875q0 -7.828125 3.234375 -19.21875l5.15625 -18.890656l2.71875 -14.765625q2.0625 -10.359375 4.359375 -13.546875q1.875 -2.71875 4.640625 -2.71875q3.046875 0 4.546875 3.46875q1.828125 4.171875 3.9375 17.015625q2.484375 15.421875 7.734375 33.37503q6.9375 -18.046906 12.0 -37.59378l1.4062195 -6.84375q0.84375 -4.125 2.203125 -6.65625q1.828125 -3.46875 5.015625 -3.46875q4.03125 0 6.140625 7.78125q0.75 2.671875 1.828125 11.0625q2.765625 21.1875 6.890625 36.18753l2.296875 8.0625q1.78125 6.46875 1.78125 7.96875q0 2.015625 -1.53125 3.375q-1.515625 1.359375 -3.4375 1.359375zm67.171875 -2.484375q-4.3125 0 -7.5 -11.0625q-1.21875 -4.21875 -3.046875 -14.765625q-4.78125 0.65625 -12.515625 2.34375l-12.46875 2.578125q-2.34375 6.140625 -8.015625 17.953125q-1.5 2.625 -4.078125 2.625q-1.875 0 -3.359375 -1.359375q-1.46875 -1.359375 -1.46875 -3.375q0 -2.25 7.078125 -17.109375q-0.796875 -1.21875 -0.796875 -2.8125q0 -3.7969055 4.59375 -4.8750305q5.34375 -10.03125 13.5 -23.0625q11.109375 -17.765625 13.828125 -17.765625q3.703125 0 5.0625 5.15625l2.953125 15.75l6.984375 32.578156l2.671875 7.40625q1.359375 3.796875 1.359375 5.0625q0 2.015625 -1.453125 3.375q-1.453125 1.359375 -3.328125 1.359375zm-16.546875 -53.578156l-13.40625 21.609375q5.671875 -1.453125 17.203125 -3.515625l-3.796875 -18.09375zm78.609375 51.84378q-7.265625 4.96875 -20.859375 4.96875q-3.421875 0 -7.828125 -1.078125q-5.296875 -1.265625 -7.96875 -3.28125l-0.46875 0q-2.015625 0 -3.375 -1.40625q-1.359375 -1.40625 -1.359375 -3.421875q0 -4.921875 0.4375 -14.734375q0.453125 -9.8281555 0.453125 -14.7500305q0 -5.484375 -0.21875 -16.375q-0.203125 -10.90625 -0.203125 -16.390625q0 -1.921875 1.96875 -4.03125q1.96875 -2.109375 3.9375 -2.109375q1.125 0 7.5 3.140625q7.21875 3.515625 8.34375 3.890625q13.3125 4.546875 22.6875 13.96875q11.015625 11.109375 11.015625 24.421875q0 8.0156555 -3.78125 15.3750305q-3.765625 7.359375 -10.28125 11.8125zm-9.84375 -49.59378q-4.78125 -3.140625 -22.078125 -10.78125l0.234375 13.5l0.140625 13.453125l-0.75 25.59378q0.328125 0.140625 0.984375 0.609375q4.125 2.765625 10.40625 2.765625q10.6875 0 15.5625 -3.28125q4.546875 -3.09375 7.234375 -8.3125q2.703125 -5.234375 2.703125 -10.90625q0 -13.2187805 -14.4375 -22.640656zm80.953125 -13.171875q-0.65625 0 -1.453125 -0.234375q-7.921875 -2.25 -15.28125 -2.25q-3.84375 0 -8.390625 0.703125q-4.546875 0.703125 -9.796875 2.15625q0.421875 3.046875 0.421875 4.875q0 6.515625 -0.796875 17.90625l20.53125 -1.96875q9.046875 -0.9375 11.109375 -0.9375q2.0625 0 3.46875 1.3125q1.40625 1.3125 1.40625 3.515625q0 4.265625 -4.3125 4.78125l-11.15625 0.984375l-21.65625 1.96875q-0.1875 3.3281555 -0.3125 6.3125305q-0.109375 2.96875 -0.109375 5.546875q0 10.359375 1.5 12.1875q1.125 1.3125 7.359375 1.3125q2.90625 0 8.734375 -0.15625q5.84375 -0.171875 8.796875 -0.171875q0.9375 0 2.765625 -0.296875q1.828125 -0.3125 2.71875 -0.3125q4.96875 0 4.96875 4.875q0 3.9375 -3.984375 4.734375q-4.40625 0.890625 -19.078125 0.890625q-14.53125 0 -18.65625 -3.84375q-4.5 -4.171875 -4.5 -19.21875q0 -3.0 0.140625 -6.5625q0.140625 -3.5625305 0.375 -7.6875305q-0.515625 -1.078125 -0.515625 -2.296875q0 -1.59375 0.890625 -2.859375q0.9375 -13.546875 0.9375 -20.015625q0 -1.734375 -0.46875 -5.078125q-0.46875 -3.359375 -0.46875 -5.09375q0 -5.578125 4.6875 -5.578125q1.96875 0 3.375 1.359375q5.625 -1.5 10.609375 -2.25q5.0 -0.75 9.40625 -0.75q11.390625 0 18.1875 2.71875q3.140625 1.265625 3.140625 4.5q0 1.875 -1.21875 3.328125q-1.359375 1.59375 -3.375 1.59375zm81.234375 4.6875q-3.0 0 -7.546875 -0.609375l-7.546875 -0.984375q-1.078125 13.640625 -1.078125 26.0625q0 3.28125 0.1875 8.1094055q0.1875 4.828125 0.1875 8.109375q0 4.40625 -0.328125 8.015625l14.765625 -0.1875q1.96875 0 3.296875 1.390625q1.34375 1.375 1.34375 3.390625q0 2.0625 -1.34375 3.453125q-1.328125 1.375 -3.296875 1.375q-2.625 0 -7.875 0.125q-5.25 0.109375 -7.875 0.109375q-3.09375 0 -9.265625 0.859375q-6.15625 0.875 -9.296875 0.875q-1.96875 0 -3.3125 -1.390625q-1.328125 -1.375 -1.328125 -3.390625q0 -2.015625 1.328125 -3.421875q1.34375 -1.40625 3.3125 -1.40625q3.046875 0 10.078125 -0.984375q0.46875 -3.796875 0.46875 -8.671875q0 -3.234375 -0.3125 -7.890625q-0.296875 -4.6719055 -0.296875 -7.8594055q0 -10.828125 1.3125 -27.046875l-6.09375 0.1875l-6.09375 0.140625q-2.015625 0 -3.375 -1.359375q-1.359375 -1.359375 -1.359375 -3.46875q0 -4.359375 4.40625 -4.78125q3.796875 -0.375 14.203125 -0.375q9.328125 0 23.390625 2.015625q4.171875 0.609375 4.171875 5.015625q0 2.203125 -1.59375 3.515625q-1.40625 1.078125 -3.234375 1.078125zm71.4375 -0.796875q-3.46875 0 -10.6875 -0.5625q-7.03125 -0.515625 -10.6875 -0.46875l-3.328125 0q0.140625 6.46875 1.265625 21.0q1.03125 13.5469055 1.03125 21.046906q0 1.640625 0.328125 4.96875q0.328125 3.328125 0.328125 5.015625q0 3.1875 -1.03125 5.484375q-1.3125 3.09375 -4.078125 3.09375q-1.875 0 -3.375 -1.3125q-1.5 -1.3125 -1.5 -3.375q0 -0.703125 0.234375 -2.109375q0.234375 -1.40625 0.234375 -2.109375q0 -2.296875 -0.3125 -6.890625q-0.296875 -4.59375 -0.296875 -6.9375q0 -6.7031555 -1.078125 -18.84378q-1.125 -13.125 -1.265625 -18.84375l-4.265625 0.046875q-10.265625 0 -16.125 -1.5q-3.796875 -0.984375 -3.796875 -4.640625q0 -1.921875 1.21875 -3.375q1.40625 -1.640625 3.609375 -1.5q1.640625 0.09375 7.5 0.84375q4.6875 0.5625 7.59375 0.5625q2.8125 0 8.53125 -0.109375q5.71875 -0.125 8.53125 -0.125q3.609375 0 10.703125 0.515625q7.109375 0.515625 10.71875 0.515625q2.015625 0 3.375 1.390625q1.359375 1.375 1.359375 3.4375q0 2.015625 -1.359375 3.40625q-1.359375 1.375 -3.375 1.375zm16.921875 -11.859375l0 52.171906q0 4.171875 -4.171875 4.171875q-4.171875 0 -4.171875 -4.171875q0 -1.921875 -0.125 -5.734375q-0.109375 -3.8281555 -0.109375 -5.7031555q0 -6.796875 0.109375 -20.359375q0.125 -13.578125 0.125 -20.375q0 -4.171875 4.171875 -4.171875q4.171875 0 4.171875 4.171875zm0.046875 69.984406q0 1.6875 -1.34375 2.921875q-1.328125 1.25 -3.015625 1.25q-1.875 0 -3.75 -2.4375q-1.828125 -2.296875 -1.828125 -4.21875q0 -1.6875 1.328125 -2.90625q1.34375 -1.21875 3.078125 -1.21875q1.828125 0 3.75 2.4375q1.78125 2.296875 1.78125 4.171875z" fill-rule="nonzero"/><path fill="#000000" fill-opacity="0.0" d="m268.3517 544.0131l612.6299 0l0 71.18109l-612.6299 0z" fill-rule="evenodd"/><path fill="#000000" d="m298.9142 569.4913q-1.25 0 -1.875 -1.453125q-0.546875 -1.25 -1.015625 -1.53125q-0.40625 -0.21875 -2.03125 -0.21875q-2.828125 0 -6.28125 4.34375q-4.6875 5.8125 -4.6875 11.03125q0 2.515625 1.609375 4.34375q1.671875 1.875 4.015625 1.875q2.0 0 4.03125 -1.046875q1.140625 -0.578125 3.484375 -2.296875q1.109375 -0.828125 1.671875 -0.828125q0.84375 0 1.40625 0.640625q0.578125 0.640625 0.578125 1.421875q0 0.875 -0.75 1.53125q-5.15625 4.578125 -10.421875 4.578125q-4.046875 0 -6.84375 -3.109375q-2.6875 -3.0 -2.6875 -7.109375q0 -6.625 5.546875 -13.578125q4.625 -5.796875 9.328125 -5.796875q0.953125 0 1.71875 0.09375q0.765625 0.078125 1.34375 0.28125q0.6875 -1.0 1.78125 -1.0q1.34375 0 1.703125 1.78125q0.3125 1.578125 0.3125 3.890625q0 0.796875 -0.4375 1.40625q-0.515625 0.75 -1.5 0.75zm22.554688 21.125q-2.203125 1.03125 -6.921875 1.859375q-4.359375 0.75 -7.109375 0.75q-1.984375 0 -2.84375 -0.59375q-1.171875 -0.828125 -1.171875 -3.015625l0.390625 -6.46875q0.515625 -8.9375 0.515625 -19.84375q0 -0.84375 0.546875 -1.421875q0.5625 -0.59375 1.390625 -0.59375q0.828125 0 1.390625 0.59375q0.5625 0.578125 0.5625 1.421875q0 11.03125 -0.53125 20.078125l-0.25 2.96875q-0.15625 1.625 -0.125 2.875q5.09375 0.0625 12.890625 -2.40625q0.328125 -0.09375 0.625 -0.09375q0.84375 0 1.40625 0.65625q0.484375 0.609375 0.484375 1.390625q0 1.25 -1.25 1.84375zm20.703125 -23.546875q-1.25 0 -3.140625 -0.25l-3.140625 -0.40625q-0.453125 5.6875 -0.453125 10.859375q0 1.359375 0.078125 3.375q0.078125 2.015625 0.078125 3.375q0 1.84375 -0.140625 3.34375l6.15625 -0.078125q0.828125 0 1.375 0.578125q0.5625 0.578125 0.5625 1.421875q0 0.859375 -0.5625 1.4375q-0.546875 0.5625 -1.375 0.5625q-1.09375 0 -3.28125 0.0625q-2.1875 0.046875 -3.28125 0.046875q-1.28125 0 -3.859375 0.359375q-2.5625 0.359375 -3.875 0.359375q-0.8125 0 -1.375 -0.578125q-0.5625 -0.578125 -0.5625 -1.421875q0 -0.828125 0.5625 -1.40625q0.5625 -0.59375 1.375 -0.59375q1.265625 0 4.203125 -0.421875q0.1875 -1.578125 0.1875 -3.609375q0 -1.34375 -0.125 -3.28125q-0.125 -1.953125 -0.125 -3.28125q0 -4.515625 0.546875 -11.265625l-2.53125 0.078125l-2.546875 0.0625q-0.84375 0 -1.40625 -0.5625q-0.5625 -0.578125 -0.5625 -1.453125q0 -1.8125 1.828125 -2.0q1.59375 -0.15625 5.921875 -0.15625q3.890625 0 9.75 0.84375q1.734375 0.25 1.734375 2.09375q0 0.921875 -0.65625 1.46875q-0.59375 0.4375 -1.359375 0.4375zm24.730469 2.421875q-1.25 0 -1.875 -1.453125q-0.546875 -1.25 -1.015625 -1.53125q-0.40625 -0.21875 -2.03125 -0.21875q-2.828125 0 -6.28125 4.34375q-4.6875 5.8125 -4.6875 11.03125q0 2.515625 1.609375 4.34375q1.671875 1.875 4.015625 1.875q2.0 0 4.03125 -1.046875q1.140625 -0.578125 3.484375 -2.296875q1.109375 -0.828125 1.671875 -0.828125q0.84375 0 1.40625 0.640625q0.578125 0.640625 0.578125 1.421875q0 0.875 -0.75 1.53125q-5.15625 4.578125 -10.421875 4.578125q-4.046875 0 -6.84375 -3.109375q-2.6875 -3.0 -2.6875 -7.109375q0 -6.625 5.546875 -13.578125q4.625 -5.796875 9.328125 -5.796875q0.953125 0 1.71875 0.09375q0.765625 0.078125 1.34375 0.28125q0.6875 -1.0 1.78125 -1.0q1.34375 0 1.703125 1.78125q0.3125 1.578125 0.3125 3.890625q0 0.796875 -0.4375 1.40625q-0.515625 0.75 -1.5 0.75zm25.054688 22.71875q-2.96875 0 -8.453125 -5.21875l-5.84375 -5.875l0 0.28125l-0.015625 10.234375q0 1.9375 -1.703125 1.9375q-1.109375 0 -1.765625 -0.984375q-0.546875 -0.796875 -0.546875 -1.734375q0 -4.578125 0.265625 -13.671875q0.28125 -9.109375 0.28125 -13.65625q0 -0.84375 0.546875 -1.421875q0.5625 -0.59375 1.375 -0.59375q0.84375 0 1.390625 0.59375q0.5625 0.578125 0.5625 1.421875q0 1.890625 -0.234375 5.890625q-0.234375 3.875 -0.203125 5.921875q2.609375 -2.484375 5.90625 -6.234375l5.609375 -6.5q0.671875 -0.765625 1.484375 -0.765625q0.78125 0 1.390625 0.59375q0.609375 0.578125 0.609375 1.421875q0 1.296875 -5.046875 6.875q-3.46875 3.8125 -7.1875 7.46875q2.34375 2.453125 7.34375 7.0625l2.046875 1.71875q1.125 0.859375 2.40625 1.296875q1.546875 0.5 1.546875 1.921875q0 0.671875 -0.40625 1.28125q-0.515625 0.734375 -1.359375 0.734375zm40.48047 -25.46875q-1.453125 0 -4.453125 -0.234375q-2.9375 -0.21875 -4.453125 -0.1875l-1.390625 0q0.0625 2.6875 0.53125 8.75q0.421875 5.640625 0.421875 8.765625q0 0.6875 0.140625 2.078125q0.140625 1.375 0.140625 2.078125q0 1.328125 -0.4375 2.28125q-0.546875 1.296875 -1.703125 1.296875q-0.78125 0 -1.40625 -0.546875q-0.625 -0.546875 -0.625 -1.40625q0 -0.296875 0.09375 -0.875q0.109375 -0.59375 0.109375 -0.890625q0 -0.953125 -0.125 -2.859375q-0.125 -1.921875 -0.125 -2.890625q0 -2.796875 -0.453125 -7.859375q-0.46875 -5.46875 -0.53125 -7.84375l-1.78125 0.015625q-4.265625 0 -6.71875 -0.625q-1.578125 -0.40625 -1.578125 -1.9375q0 -0.796875 0.515625 -1.40625q0.578125 -0.6875 1.5 -0.625q0.6875 0.046875 3.125 0.359375q1.953125 0.234375 3.15625 0.234375q1.171875 0 3.546875 -0.046875q2.390625 -0.0625 3.5625 -0.0625q1.515625 0 4.46875 0.21875q2.953125 0.21875 4.46875 0.21875q0.828125 0 1.390625 0.578125q0.578125 0.578125 0.578125 1.4375q0 0.828125 -0.578125 1.40625q-0.5625 0.578125 -1.390625 0.578125zm16.25 25.859375q-5.515625 0 -9.34375 -3.296875q-4.0625 -3.515625 -4.0625 -9.0625q0 -6.765625 4.0 -12.28125q4.484375 -6.140625 11.15625 -6.140625q6.421875 0 9.546875 2.890625q3.265625 3.015625 3.265625 9.5q0 6.75 -3.671875 12.1875q-4.21875 6.203125 -10.890625 6.203125zm1.75 -26.78125q-4.78125 0 -8.109375 4.765625q-3.0625 4.375 -3.0625 9.65625q0 3.765625 2.796875 6.125q2.671875 2.234375 6.625 2.234375q4.734375 0 7.828125 -4.78125q2.75 -4.28125 2.75 -9.609375q0 -4.671875 -2.09375 -6.5625q-1.984375 -1.828125 -6.734375 -1.828125zm51.85547 13.78125q-1.203125 5.984375 -5.09375 9.578125q-3.875 3.578125 -9.140625 3.578125q-4.8125 0 -7.21875 -2.6875q-2.390625 -2.6875 -2.390625 -8.046875q0 -5.0625 2.390625 -10.421875q2.390625 -5.359375 6.140625 -8.671875q2.5 -2.203125 5.296875 -2.203125q1.78125 0 4.6875 1.171875q3.546875 1.40625 3.546875 3.109375q0 0.796875 -0.59375 1.421875q-0.578125 0.625 -1.390625 0.625q-0.4375 0 -1.21875 -0.484375q-2.984375 -1.8125 -5.03125 -1.8125q-1.46875 0 -3.0625 1.515625q-0.8125 0.765625 -2.3125 2.78125q-4.515625 5.96875 -4.515625 12.96875q0 3.671875 1.140625 5.125q1.234375 1.609375 4.53125 1.609375q3.5 0 6.078125 -2.203125q2.703125 -2.34375 3.78125 -6.703125q-5.40625 0.265625 -9.28125 2.09375q-0.4375 0.203125 -0.875 0.203125q-0.859375 0 -1.421875 -0.65625q-0.53125 -0.609375 -0.53125 -1.40625q0 -1.078125 1.03125 -1.71875q4.21875 -2.578125 14.5625 -2.578125q0.828125 0 1.390625 0.5625q0.578125 0.5625 0.578125 1.421875q0 1.28125 -1.078125 1.828125zm17.46872 13.0q-5.515625 0 -9.3437195 -3.296875q-4.0625 -3.515625 -4.0625 -9.0625q0 -6.765625 4.0 -12.28125q4.4843445 -6.140625 11.1562195 -6.140625q6.421875 0 9.546875 2.890625q3.265625 3.015625 3.265625 9.5q0 6.75 -3.671875 12.1875q-4.21875 6.203125 -10.890625 6.203125zm1.75 -26.78125q-4.78125 0 -8.109375 4.765625q-3.0624695 4.375 -3.0624695 9.65625q0 3.765625 2.7968445 6.125q2.671875 2.234375 6.625 2.234375q4.734375 0 7.828125 -4.78125q2.75 -4.28125 2.75 -9.609375q0 -4.671875 -2.09375 -6.5625q-1.984375 -1.828125 -6.734375 -1.828125zm53.07422 0.921875q-1.453125 0 -4.453125 -0.234375q-2.9375 -0.21875 -4.453125 -0.1875l-1.390625 0q0.0625 2.6875 0.53125 8.75q0.421875 5.640625 0.421875 8.765625q0 0.6875 0.140625 2.078125q0.140625 1.375 0.140625 2.078125q0 1.328125 -0.4375 2.28125q-0.546875 1.296875 -1.703125 1.296875q-0.78125 0 -1.40625 -0.546875q-0.625 -0.546875 -0.625 -1.40625q0 -0.296875 0.09375 -0.875q0.109375 -0.59375 0.109375 -0.890625q0 -0.953125 -0.125 -2.859375q-0.125 -1.921875 -0.125 -2.890625q0 -2.796875 -0.453125 -7.859375q-0.46875 -5.46875 -0.53125 -7.84375l-1.78125 0.015625q-4.265625 0 -6.71875 -0.625q-1.578125 -0.40625 -1.578125 -1.9375q0 -0.796875 0.515625 -1.40625q0.578125 -0.6875 1.5 -0.625q0.6875 0.046875 3.125 0.359375q1.953125 0.234375 3.15625 0.234375q1.171875 0 3.546875 -0.046875q2.390625 -0.0625 3.5625 -0.0625q1.515625 0 4.46875 0.21875q2.953125 0.21875 4.46875 0.21875q0.828125 0 1.390625 0.578125q0.578125 0.578125 0.578125 1.4375q0 0.828125 -0.578125 1.40625q-0.5625 0.578125 -1.390625 0.578125zm16.25 25.859375q-5.515625 0 -9.34375 -3.296875q-4.0625 -3.515625 -4.0625 -9.0625q0 -6.765625 4.0 -12.28125q4.484375 -6.140625 11.15625 -6.140625q6.421875 0 9.546875 2.890625q3.265625 3.015625 3.265625 9.5q0 6.75 -3.671875 12.1875q-4.21875 6.203125 -10.890625 6.203125zm1.75 -26.78125q-4.78125 0 -8.109375 4.765625q-3.0625 4.375 -3.0625 9.65625q0 3.765625 2.796875 6.125q2.671875 2.234375 6.625 2.234375q4.734375 0 7.828125 -4.78125q2.75 -4.28125 2.75 -9.609375q0 -4.671875 -2.09375 -6.5625q-1.984375 -1.828125 -6.734375 -1.828125zm56.558594 21.25q0 0.9375 -0.3125 3.125q-0.3125 1.984375 -2.078125 1.984375q-1.078125 0 -2.5625 -1.40625q-7.953125 -7.53125 -18.25 -21.703125l-0.09375 4.4375l-0.0625 4.453125q0 1.609375 0.0625 4.859375q0.078125 3.234375 0.078125 4.875q0 5.265625 -2.03125 5.265625q-1.078125 0 -1.703125 -0.6875q-0.5625 -0.609375 -0.5625 -1.453125q0 -0.8125 0.125 -2.46875q0.125 -1.671875 0.125 -2.484375q0 -1.21875 0.078125 -3.625q0.078125 -2.40625 0.078125 -3.625q0 -1.28125 -0.0625 -3.890625q-0.046875 -2.609375 -0.046875 -3.90625q0 -1.21875 -0.234375 -3.65625q-0.234375 -2.4375 -0.234375 -3.65625q0 -0.90625 0.765625 -1.640625q0.78125 -0.75 1.75 -0.75q1.03125 0 2.5625 2.265625q4.859375 7.28125 8.75 12.109375q4.625 5.71875 10.15625 10.9375q0.0625 -0.84375 0 -2.484375l-0.0625 -2.453125q0 -8.578125 -0.65625 -13.65625q-0.078125 -0.5 -0.53125 -2.046875q-0.390625 -1.328125 -0.390625 -2.078125q0 -2.265625 2.0625 -2.265625q3.40625 0 3.40625 12.6875q0 2.15625 -0.0625 6.46875q-0.0625 4.3125 -0.0625 6.46875zm23.5625 -21.953125q-0.28125 0 -0.609375 -0.09375q-3.296875 -0.9375 -6.359375 -0.9375q-1.609375 0 -3.5 0.296875q-1.890625 0.296875 -4.078125 0.890625q0.171875 1.28125 0.171875 2.03125q0 2.71875 -0.328125 7.46875l8.546875 -0.828125q3.765625 -0.390625 4.625 -0.390625q0.859375 0 1.4375 0.546875q0.59375 0.546875 0.59375 1.46875q0 1.78125 -1.796875 2.0l-4.640625 0.40625l-9.03125 0.8125q-0.078125 1.390625 -0.125 2.640625q-0.046875 1.234375 -0.046875 2.3125q0 4.3125 0.625 5.078125q0.46875 0.546875 3.0625 0.546875q1.21875 0 3.640625 -0.0625q2.4375 -0.078125 3.671875 -0.078125q0.390625 0 1.140625 -0.125q0.765625 -0.125 1.140625 -0.125q2.078125 0 2.078125 2.03125q0 1.640625 -1.671875 1.96875q-1.828125 0.375 -7.9375 0.375q-6.0625 0 -7.78125 -1.609375q-1.875 -1.734375 -1.875 -8.0q0 -1.25 0.0625 -2.734375q0.0625 -1.484375 0.15625 -3.203125q-0.21875 -0.453125 -0.21875 -0.96875q0 -0.65625 0.375 -1.1875q0.390625 -5.640625 0.390625 -8.34375q0 -0.71875 -0.203125 -2.109375q-0.1875 -1.40625 -0.1875 -2.125q0 -2.328125 1.953125 -2.328125q0.8125 0 1.40625 0.578125q2.34375 -0.625 4.421875 -0.9375q2.078125 -0.3125 3.921875 -0.3125q4.734375 0 7.578125 1.125q1.296875 0.53125 1.296875 1.875q0 0.78125 -0.5 1.390625q-0.5625 0.65625 -1.40625 0.65625zm30.136719 -0.046875q-2.625 3.15625 -4.03125 5.203125l-2.4375 3.59375q-1.421875 2.03125 -2.671875 3.421875l4.296875 6.296875q2.5625 3.71875 4.546875 6.09375q0.53125 0.640625 0.53125 1.34375q0 0.828125 -0.59375 1.421875q-0.59375 0.609375 -1.421875 0.609375q-0.734375 0 -1.390625 -0.609375q-1.4375 -1.359375 -3.0 -3.703125l-2.625 -4.03125l-3.0625 -4.390625l-6.71875 7.765625l-3.59375 4.03125q-0.640625 0.640625 -1.421875 0.640625q-0.796875 0 -1.40625 -0.609375q-0.609375 -0.59375 -0.609375 -1.421875q0 -0.703125 0.515625 -1.328125l3.515625 -3.921875l7.3125 -8.5q-2.140625 -2.875 -4.5625 -5.765625l-2.265625 -3.0625q-1.375 -1.828125 -2.546875 -2.8125q-0.8125 -0.6875 -0.8125 -1.578125q0 -0.796875 0.5625 -1.421875q0.5625 -0.625 1.40625 -0.625q1.65625 0 4.234375 3.53125q0.8125 1.1875 2.453125 3.375q2.21875 2.65625 4.234375 5.328125l4.453125 -6.203125q4.328125 -6.03125 5.625 -6.03125q0.796875 0 1.40625 0.609375q0.609375 0.59375 0.609375 1.421875q0 0.671875 -0.53125 1.328125zm28.617188 1.671875q-1.453125 0 -4.453125 -0.234375q-2.9375 -0.21875 -4.453125 -0.1875l-1.390625 0q0.0625 2.6875 0.53125 8.75q0.421875 5.640625 0.421875 8.765625q0 0.6875 0.140625 2.078125q0.140625 1.375 0.140625 2.078125q0 1.328125 -0.4375 2.28125q-0.546875 1.296875 -1.703125 1.296875q-0.78125 0 -1.40625 -0.546875q-0.625 -0.546875 -0.625 -1.40625q0 -0.296875 0.09375 -0.875q0.109375 -0.59375 0.109375 -0.890625q0 -0.953125 -0.125 -2.859375q-0.125 -1.921875 -0.125 -2.890625q0 -2.796875 -0.453125 -7.859375q-0.46875 -5.46875 -0.53125 -7.84375l-1.78125 0.015625q-4.265625 0 -6.71875 -0.625q-1.578125 -0.40625 -1.578125 -1.9375q0 -0.796875 0.515625 -1.40625q0.578125 -0.6875 1.5 -0.625q0.6875 0.046875 3.125 0.359375q1.953125 0.234375 3.15625 0.234375q1.171875 0 3.546875 -0.046875q2.390625 -0.0625 3.5625 -0.0625q1.515625 0 4.46875 0.21875q2.953125 0.21875 4.46875 0.21875q0.828125 0 1.390625 0.578125q0.578125 0.578125 0.578125 1.4375q0 0.828125 -0.578125 1.40625q-0.5625 0.578125 -1.390625 0.578125zm32.546875 23.875q-2.203125 1.03125 -6.921875 1.859375q-4.359375 0.75 -7.109375 0.75q-1.984375 0 -2.84375 -0.59375q-1.171875 -0.828125 -1.171875 -3.015625l0.390625 -6.46875q0.515625 -8.9375 0.515625 -19.84375q0 -0.84375 0.546875 -1.421875q0.5625 -0.59375 1.390625 -0.59375q0.828125 0 1.390625 0.59375q0.5625 0.578125 0.5625 1.421875q0 11.03125 -0.53125 20.078125l-0.25 2.96875q-0.15625 1.625 -0.125 2.875q5.09375 0.0625 12.890625 -2.40625q0.328125 -0.09375 0.625 -0.09375q0.84375 0 1.40625 0.65625q0.484375 0.609375 0.484375 1.390625q0 1.25 -1.25 1.84375zm23.796875 -25.5q-0.28125 0 -0.609375 -0.09375q-3.296875 -0.9375 -6.359375 -0.9375q-1.609375 0 -3.5 0.296875q-1.890625 0.296875 -4.078125 0.890625q0.171875 1.28125 0.171875 2.03125q0 2.71875 -0.328125 7.46875l8.546875 -0.828125q3.765625 -0.390625 4.625 -0.390625q0.859375 0 1.4375 0.546875q0.59375 0.546875 0.59375 1.46875q0 1.78125 -1.796875 2.0l-4.640625 0.40625l-9.03125 0.8125q-0.078125 1.390625 -0.125 2.640625q-0.046875 1.234375 -0.046875 2.3125q0 4.3125 0.625 5.078125q0.46875 0.546875 3.0625 0.546875q1.21875 0 3.640625 -0.0625q2.4375 -0.078125 3.671875 -0.078125q0.390625 0 1.140625 -0.125q0.765625 -0.125 1.140625 -0.125q2.078125 0 2.078125 2.03125q0 1.640625 -1.671875 1.96875q-1.828125 0.375 -7.9375 0.375q-6.0625 0 -7.78125 -1.609375q-1.875 -1.734375 -1.875 -8.0q0 -1.25 0.0625 -2.734375q0.0625 -1.484375 0.15625 -3.203125q-0.21875 -0.453125 -0.21875 -0.96875q0 -0.65625 0.375 -1.1875q0.390625 -5.640625 0.390625 -8.34375q0 -0.71875 -0.203125 -2.109375q-0.1875 -1.40625 -0.1875 -2.125q0 -2.328125 1.953125 -2.328125q0.8125 0 1.40625 0.578125q2.34375 -0.625 4.421875 -0.9375q2.078125 -0.3125 3.921875 -0.3125q4.734375 0 7.578125 1.125q1.296875 0.53125 1.296875 1.875q0 0.78125 -0.5 1.390625q-0.5625 0.65625 -1.40625 0.65625zm28.714844 -0.484375q-1.21875 1.8125 -1.984375 3.8125l-1.484375 4.28125l-5.25 14.1875q-0.921875 2.5 -2.140625 4.890625q-0.625 1.171875 -1.765625 1.171875q-1.5 0 -2.109375 -1.515625q-2.359375 -5.953125 -5.25 -17.09375l-1.546875 -5.375q-1.15625 -4.0625 -1.15625 -5.3125q0 -0.875 0.625 -1.453125q0.578125 -0.515625 1.375 -0.515625q1.484375 0 1.90625 1.59375l0.734375 3.40625l1.875 6.640625q1.875 7.265625 3.640625 12.515625l0.125 -0.3125l5.234375 -14.1875l1.65625 -4.78125q1.109375 -2.890625 2.359375 -4.375q0.65625 -0.78125 1.53125 -0.78125q0.78125 0 1.390625 0.59375q0.625 0.59375 0.625 1.4375q0 0.59375 -0.390625 1.171875zm22.261719 0.484375q-0.28125 0 -0.609375 -0.09375q-3.296875 -0.9375 -6.359375 -0.9375q-1.609375 0 -3.5 0.296875q-1.890625 0.296875 -4.078125 0.890625q0.171875 1.28125 0.171875 2.03125q0 2.71875 -0.328125 7.46875l8.546875 -0.828125q3.765625 -0.390625 4.625 -0.390625q0.859375 0 1.4375 0.546875q0.59375 0.546875 0.59375 1.46875q0 1.78125 -1.796875 2.0l-4.640625 0.40625l-9.03125 0.8125q-0.078125 1.390625 -0.125 2.640625q-0.046875 1.234375 -0.046875 2.3125q0 4.3125 0.625 5.078125q0.46875 0.546875 3.0625 0.546875q1.21875 0 3.640625 -0.0625q2.4375 -0.078125 3.671875 -0.078125q0.390625 0 1.140625 -0.125q0.765625 -0.125 1.140625 -0.125q2.078125 0 2.078125 2.03125q0 1.640625 -1.671875 1.96875q-1.828125 0.375 -7.9375 0.375q-6.0625 0 -7.78125 -1.609375q-1.875 -1.734375 -1.875 -8.0q0 -1.25 0.0625 -2.734375q0.0625 -1.484375 0.15625 -3.203125q-0.21875 -0.453125 -0.21875 -0.96875q0 -0.65625 0.375 -1.1875q0.390625 -5.640625 0.390625 -8.34375q0 -0.71875 -0.203125 -2.109375q-0.1875 -1.40625 -0.1875 -2.125q0 -2.328125 1.953125 -2.328125q0.8125 0 1.40625 0.578125q2.34375 -0.625 4.421875 -0.9375q2.078125 -0.3125 3.921875 -0.3125q4.734375 0 7.578125 1.125q1.296875 0.53125 1.296875 1.875q0 0.78125 -0.5 1.390625q-0.5625 0.65625 -1.40625 0.65625zm23.214844 25.5q-2.203125 1.03125 -6.921875 1.859375q-4.359375 0.75 -7.109375 0.75q-1.984375 0 -2.84375 -0.59375q-1.171875 -0.828125 -1.171875 -3.015625l0.390625 -6.46875q0.515625 -8.9375 0.515625 -19.84375q0 -0.84375 0.546875 -1.421875q0.5625 -0.59375 1.390625 -0.59375q0.828125 0 1.390625 0.59375q0.5625 0.578125 0.5625 1.421875q0 11.03125 -0.53125 20.078125l-0.25 2.96875q-0.15625 1.625 -0.125 2.875q5.09375 0.0625 12.890625 -2.40625q0.328125 -0.09375 0.625 -0.09375q0.84375 0 1.40625 0.65625q0.484375 0.609375 0.484375 1.390625q0 1.25 -1.25 1.84375z" fill-rule="nonzero"/></g></svg>