<svg version="1.1" viewBox="0.0 0.0 1133.9370078740158 1133.9370078740158" fill="none" stroke="none" stroke-linecap="square" stroke-miterlimit="10" xmlns:xlink="http://www.w3.org/1999/xlink" xmlns="http://www.w3.org/2000/svg"><clipPath id="p.0"><path d="m0 0l1133.937 0l0 1133.937l-1133.937 0l0 -1133.937z" clip-rule="nonzero"/></clipPath><g clip-path="url(#p.0)"><path fill="#000000" fill-opacity="0.0" d="m0 0l1133.937 0l0 1133.937l-1133.937 0z" fill-rule="evenodd"/><path fill="#000000" fill-opacity="0.0" d="m217.40945 423.47244l699.11816 0l0 254.9921l-699.11816 0z" fill-rule="evenodd"/><path fill="#000000" d="m365.49976 464.67932q-1.125 1.78125 -3.0 5.484375l-8.0625 19.921875q-4.6875 11.203125 -8.8125 19.59375l-5.859375 10.453125l-2.484375 5.0625q-1.546875 2.71875 -4.171875 2.71875q-1.828125 0 -3.328125 -1.359375q-1.5 -1.359375 -1.5 -3.375q0 -1.59375 4.40625 -9.984375l5.765625 -10.546875q-8.390625 -10.828125 -10.875 -17.0625q-2.109375 -5.296875 -7.03125 -12.703125q-6.75 -10.125 -7.921875 -12.234375q-0.703125 -1.265625 -0.703125 -2.53125q0 -2.015625 1.46875 -3.390625q1.484375 -1.390625 3.359375 -1.390625q2.296875 0 3.84375 2.203125l3.75 5.8125q4.96875 7.359375 6.5625 10.03125q3.515625 5.765625 5.484375 10.6875q1.546875 3.890625 6.609375 10.640625l10.734375 -26.15625q1.828125 -3.234375 5.0625 -9.984375q1.3125 -3.1875 4.359375 -3.1875q1.875 0 3.34375 1.3125q1.484375 1.3125 1.484375 3.375q0 2.15625 -2.484375 6.609375zm43.640625 62.8125q-13.21875 0 -22.40625 -7.921875q-9.75 -8.4375 -9.75 -21.75q0 -16.21875 9.609375 -29.484375q10.734375 -14.71875 26.765625 -14.71875q15.421875 0 22.921875 6.9375q7.828125 7.21875 7.828125 22.78125q0 16.21875 -8.8125 29.25q-10.125 14.90625 -26.15625 14.90625zm4.21875 -64.265625q-11.484375 0 -19.453125 11.4375q-7.359375 10.5 -7.359375 23.15625q0 9.046875 6.703125 14.71875q6.421875 5.34375 15.890625 5.34375q11.390625 0 18.796875 -11.484375q6.609375 -10.265625 6.609375 -23.0625q0 -11.203125 -5.015625 -15.75q-4.78125 -4.359375 -16.171875 -4.359375zm71.859375 63.28125q-14.578125 0 -21.75 -8.390625q-5.8125 -6.75 -7.3125 -19.96875q-0.703125 -5.953125 -0.703125 -23.765625q0 -6.5625 0.28125 -10.59375q0.28125 -4.265625 0.84375 -5.953125q1.171875 -3.421875 4.21875 -3.421875q4.3125 0 4.3125 7.921875l0 27.515625q0 28.40625 19.875 28.40625q18.703125 0 18.703125 -47.8125q0 -1.78125 0 -4.59375q-0.046875 -2.8125 -0.046875 -3.75q0 -2.90625 1.03125 -5.109375q1.3125 -2.8125 3.890625 -2.8125q4.6875 0 4.6875 6.421875q0 1.921875 0.046875 5.8125q0 3.890625 0 5.8125q0 54.28125 -28.078125 54.28125zm129.09375 2.625q-2.15625 0 -3.796875 -1.21875q-1.875 -1.40625 -1.875 -3.46875q-2.15625 -5.671875 -2.71875 -9.234375q-0.5625 -3.5625 -3.703125 -20.203125q-2.390625 -12.609375 -3.1875 -20.25q-4.171875 15.46875 -8.953125 26.203125q-5.53125 12.421875 -7.171875 19.453125q0.5625 1.078125 0.5625 2.109375q0 2.109375 -1.875 3.46875q-1.6875 1.265625 -3.84375 1.265625q-6.328125 0 -6.328125 -5.671875l-1.453125 -5.953125l-5.109375 -22.96875q-3.046875 -11.625 -10.40625 -33.328125q-0.328125 -1.03125 -0.328125 -1.875q0 -4.359375 4.921875 -4.359375q3.046875 0 4.6875 3.328125q0.84375 1.6875 3.421875 9.703125q2.765625 8.484375 5.53125 20.4375l4.546875 20.71875q5.015625 -11.625 9.984375 -28.3125q3.046875 -10.171875 4.640625 -14.109375q4.21875 -10.359375 8.203125 -10.359375q3.28125 0 4.640625 3.328125q1.6875 4.03125 3.421875 19.21875q0.9375 7.6875 3.1875 18.46875l4.03125 18.421875q6.28125 -15.09375 15.703125 -40.828125q0.515625 -1.40625 2.34375 -8.859375q1.359375 -5.484375 3.328125 -8.53125q1.6875 -2.578125 4.40625 -2.578125q4.734375 0 4.734375 4.6875q0 0.796875 -1.5 4.6875l-1.875 5.0625l-2.578125 8.34375l-13.921875 33.84375q-1.921875 5.578125 -6.609375 16.21875q-1.6875 3.140625 -5.0625 3.140625zm70.6875 -1.640625q-13.21875 0 -22.40625 -7.921875q-9.75 -8.4375 -9.75 -21.75q0 -16.21875 9.609375 -29.484375q10.734375 -14.71875 26.765625 -14.71875q15.421875 0 22.921875 6.9375q7.828125 7.21875 7.828125 22.78125q0 16.21875 -8.8125 29.25q-10.125 14.90625 -26.15625 14.90625zm4.21875 -64.265625q-11.484375 0 -19.453125 11.4375q-7.359375 10.5 -7.359375 23.15625q0 9.046875 6.703125 14.71875q6.421875 5.34375 15.890625 5.34375q11.390625 0 18.796875 -11.484375q6.609375 -10.265625 6.609375 -23.0625q0 -11.203125 -5.015625 -15.75q-4.78125 -4.359375 -16.171875 -4.359375zm107.0625 51.0q0 2.25 -0.75 7.5q-0.75 4.734375 -5.015625 4.734375q-2.578125 0 -6.140625 -3.375q-19.078125 -18.046875 -43.78125 -52.078125l-0.234375 10.640625l-0.140625 10.6875q0 3.890625 0.15625 11.671875q0.171875 7.78125 0.171875 11.71875q0 12.609375 -4.875 12.609375q-2.578125 0 -4.078125 -1.640625q-1.359375 -1.453125 -1.359375 -3.46875q0 -1.96875 0.296875 -5.953125q0.3125 -3.984375 0.3125 -5.953125q0 -2.90625 0.1875 -8.6875q0.1875 -5.796875 0.1875 -8.703125q0 -3.09375 -0.140625 -9.34375q-0.140625 -6.265625 -0.140625 -9.359375q0 -2.953125 -0.5625 -8.78125q-0.5625 -5.84375 -0.5625 -8.796875q0 -2.15625 1.84375 -3.9375q1.859375 -1.78125 4.203125 -1.78125q2.484375 0 6.140625 5.4375q11.671875 17.484375 21.0 29.0625q11.109375 13.734375 24.375 26.25q0.140625 -2.015625 0 -5.953125l-0.140625 -5.90625q0 -20.578125 -1.59375 -32.765625q-0.1875 -1.21875 -1.265625 -4.921875q-0.9375 -3.1875 -0.9375 -4.96875q0 -5.4375 4.96875 -5.4375q8.15625 0 8.15625 30.421875q0 5.203125 -0.140625 15.546875q-0.140625 10.328125 -0.140625 15.53125zm19.78125 -60.65625l0 52.171875q0 4.171875 -4.171875 4.171875q-4.171875 0 -4.171875 -4.171875q0 -1.921875 -0.125 -5.734375q-0.109375 -3.828125 -0.109375 -5.703125q0 -6.796875 0.109375 -20.359375q0.125 -13.578125 0.125 -20.375q0 -4.171875 4.171875 -4.171875q4.171875 0 4.171875 4.171875zm0.046875 69.984375q0 1.6875 -1.34375 2.921875q-1.328125 1.25 -3.015625 1.25q-1.875 0 -3.75 -2.4375q-1.828125 -2.296875 -1.828125 -4.21875q0 -1.6875 1.328125 -2.90625q1.34375 -1.21875 3.078125 -1.21875q1.828125 0 3.75 2.4375q1.78125 2.296875 1.78125 4.171875z" fill-rule="nonzero"/><path fill="#000000" d="m265.4431 561.4006q-1.453125 0 -4.453125 -0.234375q-2.9375 -0.21875 -4.453125 -0.1875l-1.390625 0q0.0625 2.6875 0.53125 8.75q0.421875 5.640625 0.421875 8.765625q0 0.6875 0.140625 2.078125q0.140625 1.375 0.140625 2.078125q0 1.328125 -0.4375 2.28125q-0.546875 1.296875 -1.703125 1.296875q-0.78125 0 -1.40625 -0.546875q-0.625 -0.546875 -0.625 -1.40625q0 -0.296875 0.09375 -0.875q0.109375 -0.59375 0.109375 -0.890625q0 -0.953125 -0.125 -2.859375q-0.125 -1.921875 -0.125 -2.890625q0 -2.796875 -0.453125 -7.859375q-0.46875 -5.46875 -0.53125 -7.84375l-1.78125 0.015625q-4.265625 0 -6.71875 -0.625q-1.578125 -0.40625 -1.578125 -1.9375q0 -0.796875 0.515625 -1.40625q0.578125 -0.6875 1.5 -0.625q0.6875 0.046875 3.125 0.359375q1.953125 0.234375 3.15625 0.234375q1.171875 0 3.546875 -0.046875q2.390625 -0.0625 3.5625 -0.0625q1.515625 0 4.46875 0.21875q2.953125 0.21875 4.46875 0.21875q0.828125 0 1.390625 0.578125q0.578125 0.578125 0.578125 1.4375q0 0.828125 -0.578125 1.40625q-0.5625 0.578125 -1.390625 0.578125zm29.015625 -2.84375q-0.296875 0.8125 -0.296875 2.390625q0 0.59375 0.03125 1.75q0.046875 1.140625 0.046875 1.734375q0 1.953125 -0.34375 5.828125q-0.328125 3.859375 -0.328125 5.8125q0 1.484375 0.203125 4.453125q0.21875 2.96875 0.21875 4.46875q0 0.796875 -0.546875 1.34375q-0.53125 0.5625 -1.328125 0.5625q-0.78125 0 -1.328125 -0.5625q-0.546875 -0.546875 -0.546875 -1.34375q0 -1.5 -0.21875 -4.46875q-0.203125 -2.96875 -0.203125 -4.453125q0 -1.421875 0.09375 -2.890625q-3.34375 0.0625 -8.265625 1.0l-8.203125 1.59375q0 1.765625 -0.359375 5.0q-0.34375 3.21875 -0.34375 5.0q0 0.8125 -0.546875 1.359375q-0.53125 0.5625 -1.328125 0.5625q-0.796875 0 -1.34375 -0.5625q-0.53125 -0.546875 -0.53125 -1.359375q0 -2.0625 0.34375 -6.171875q0.34375 -4.125 0.34375 -6.1875q0 -1.078125 -0.078125 -3.234375q-0.078125 -2.171875 -0.078125 -3.265625q0 -1.546875 0.1875 -4.640625q0.203125 -3.09375 0.203125 -4.640625q0 -0.828125 0.53125 -1.375q0.546875 -0.546875 1.34375 -0.546875q0.796875 0 1.328125 0.546875q0.546875 0.546875 0.546875 1.375q0 1.5625 -0.203125 4.6875q-0.203125 3.109375 -0.203125 4.671875l0.109375 4.9375l8.375 -1.578125q5.03125 -0.9375 8.46875 -0.984375q0.203125 -2.796875 0.203125 -8.421875q0 -1.484375 0.5 -3.0q0.640625 -2.09375 1.8125 -2.09375q0.734375 0 1.3125 0.546875q0.59375 0.53125 0.59375 1.34375q0 0.296875 -0.171875 0.8125zm26.707031 28.109375q-1.796875 0 -3.125 -4.625q-0.515625 -1.75 -1.28125 -6.140625q-1.984375 0.265625 -5.203125 0.96875l-5.203125 1.078125q-0.96875 2.5625 -3.34375 7.484375q-0.625 1.09375 -1.6875 1.09375q-0.78125 0 -1.40625 -0.5625q-0.609375 -0.578125 -0.609375 -1.421875q0 -0.9375 2.953125 -7.125q-0.34375 -0.5 -0.34375 -1.171875q0 -1.578125 1.921875 -2.03125q2.21875 -4.171875 5.625 -9.609375q4.625 -7.40625 5.765625 -7.40625q1.53125 0 2.109375 2.15625l1.21875 6.5625l2.921875 13.578125l1.109375 3.078125q0.5625 1.578125 0.5625 2.109375q0 0.84375 -0.609375 1.40625q-0.59375 0.578125 -1.375 0.578125zm-6.90625 -22.328125l-5.578125 9.0q2.359375 -0.609375 7.171875 -1.46875l-1.59375 -7.53125zm41.835938 17.390625q0 0.9375 -0.3125 3.125q-0.3125 1.984375 -2.078125 1.984375q-1.078125 0 -2.5625 -1.40625q-7.953125 -7.53125 -18.25 -21.703125l-0.09375 4.4375l-0.0625 4.453125q0 1.609375 0.0625 4.859375q0.078125 3.234375 0.078125 4.875q0 5.265625 -2.03125 5.265625q-1.078125 0 -1.703125 -0.6875q-0.5625 -0.609375 -0.5625 -1.453125q0 -0.8125 0.125 -2.46875q0.125 -1.671875 0.125 -2.484375q0 -1.21875 0.078125 -3.625q0.078125 -2.40625 0.078125 -3.625q0 -1.28125 -0.0625 -3.890625q-0.046875 -2.609375 -0.046875 -3.90625q0 -1.21875 -0.234375 -3.65625q-0.234375 -2.4375 -0.234375 -3.65625q0 -0.90625 0.765625 -1.640625q0.78125 -0.75 1.75 -0.75q1.03125 0 2.5625 2.265625q4.859375 7.28125 8.75 12.109375q4.625 5.71875 10.15625 10.9375q0.0625 -0.84375 0 -2.484375l-0.0625 -2.453125q0 -8.578125 -0.65625 -13.65625q-0.078125 -0.5 -0.53125 -2.046875q-0.390625 -1.328125 -0.390625 -2.078125q0 -2.265625 2.0625 -2.265625q3.40625 0 3.40625 12.6875q0 2.15625 -0.0625 6.46875q-0.0625 4.3125 -0.0625 6.46875zm24.296875 5.140625q-2.96875 0 -8.453125 -5.21875l-5.84375 -5.875l0 0.28125l-0.015625 10.234375q0 1.9375 -1.703125 1.9375q-1.109375 0 -1.765625 -0.984375q-0.546875 -0.796875 -0.546875 -1.734375q0 -4.578125 0.265625 -13.671875q0.28125 -9.109375 0.28125 -13.65625q0 -0.84375 0.546875 -1.421875q0.5625 -0.59375 1.375 -0.59375q0.84375 0 1.390625 0.59375q0.5625 0.578125 0.5625 1.421875q0 1.890625 -0.234375 5.890625q-0.234375 3.875 -0.203125 5.921875q2.609375 -2.484375 5.90625 -6.234375l5.609375 -6.5q0.671875 -0.765625 1.484375 -0.765625q0.78125 0 1.390625 0.59375q0.609375 0.578125 0.609375 1.421875q0 1.296875 -5.046875 6.875q-3.46875 3.8125 -7.1875 7.46875q2.34375 2.453125 7.34375 7.0625l2.046875 1.71875q1.125 0.859375 2.40625 1.296875q1.546875 0.5 1.546875 1.921875q0 0.671875 -0.40625 1.28125q-0.515625 0.734375 -1.359375 0.734375zm4.5429688 -5.65625q-0.03125 -0.828125 0.546875 -1.34375q0.578125 -0.515625 1.421875 -0.515625q0.953125 0 1.671875 1.09375q1.0 1.484375 1.78125 2.015625q1.65625 1.09375 4.828125 1.09375q3.03125 0 5.625 -1.3125q3.3125 -1.6875 3.3125 -4.671875q0 -2.453125 -2.78125 -3.890625q-2.375 -1.21875 -5.84375 -1.328125q-3.09375 -0.109375 -5.25 -1.34375q-2.78125 -1.578125 -2.78125 -4.53125q0 -3.46875 3.953125 -6.34375q3.765625 -2.71875 7.78125 -2.71875q1.90625 0 4.28125 0.640625q3.171875 0.84375 3.171875 2.15625q0 1.71875 -1.765625 1.71875q-0.78125 0 -2.734375 -0.421875q-1.953125 -0.421875 -3.03125 -0.40625q-3.046875 0.046875 -5.171875 1.515625q-2.1875 1.5 -2.1875 3.640625q0 1.625 2.890625 2.296875q1.078125 0.25 4.15625 0.46875q4.484375 0.328125 7.0 2.8125q2.296875 2.265625 2.296875 5.515625q0 4.65625 -4.296875 7.421875q-3.71875 2.40625 -8.640625 2.40625q-3.578125 0 -6.546875 -1.359375q-3.640625 -1.6875 -3.6875 -4.609375zm58.671875 -20.8125q-0.359375 0 -0.75 -0.15625q-2.421875 -0.890625 -6.40625 -0.890625q-1.28125 0 -3.015625 0.1875q-1.734375 0.1875 -3.875 0.578125l-0.046875 8.4375q3.78125 -1.0 5.671875 -1.0q3.0 0 6.234375 0.34375q1.828125 0.203125 1.828125 2.0q0 0.875 -0.5625 1.453125q-0.5625 0.578125 -1.40625 0.578125q-1.015625 0 -3.046875 -0.171875q-2.03125 -0.1875 -3.046875 -0.1875q-1.328125 0 -5.75 1.140625l-0.171875 13.4375q0 0.84375 -0.546875 1.421875q-0.546875 0.578125 -1.390625 0.578125q-0.828125 0 -1.390625 -0.578125q-0.5625 -0.578125 -0.5625 -1.421875q0 -3.84375 0.140625 -11.546875q0.15625 -7.71875 0.15625 -11.5625q0 -0.859375 -0.03125 -2.578125q-0.03125 -1.734375 -0.03125 -2.59375q0 -0.859375 0.53125 -1.4375q0.546875 -0.59375 1.40625 -0.59375q0.640625 0 1.15625 0.34375q2.421875 -0.421875 4.34375 -0.625q1.9375 -0.203125 3.40625 -0.203125q2.25 0 5.140625 0.640625q3.921875 0.890625 3.921875 2.34375q0 0.78125 -0.5 1.390625q-0.578125 0.671875 -1.40625 0.671875zm18.339844 26.859375q-5.515625 0 -9.34375 -3.296875q-4.0625 -3.515625 -4.0625 -9.0625q0 -6.765625 4.0 -12.28125q4.484375 -6.140625 11.15625 -6.140625q6.421875 0 9.546875 2.890625q3.265625 3.015625 3.265625 9.5q0 6.75 -3.671875 12.1875q-4.21875 6.203125 -10.890625 6.203125zm1.75 -26.78125q-4.78125 0 -8.109375 4.765625q-3.0625 4.375 -3.0625 9.65625q0 3.765625 2.796875 6.125q2.671875 2.234375 6.625 2.234375q4.734375 0 7.828125 -4.78125q2.75 -4.28125 2.75 -9.609375q0 -4.671875 -2.09375 -6.5625q-1.984375 -1.828125 -6.734375 -1.828125zm36.51172 25.8125q-0.75 0 -1.390625 -0.625q-6.46875 -6.390625 -14.375 -8.59375l0.15625 3.828125l0.09375 3.84375q0 0.859375 -0.5625 1.4375q-0.546875 0.578125 -1.390625 0.578125q-0.84375 0 -1.40625 -0.578125q-0.546875 -0.578125 -0.546875 -1.4375q0 -1.546875 -0.15625 -4.59375q-0.140625 -3.0625 -0.140625 -4.609375q0 -1.796875 0.390625 -5.34375q0.390625 -3.5625 0.390625 -5.34375q0 -0.984375 -0.1875 -2.9375q-0.171875 -1.953125 -0.171875 -2.953125q0 -1.109375 0.625 -1.953125q0.734375 -1.03125 2.046875 -0.9375l4.703125 0.375q2.671875 0.328125 4.515625 1.296875q7.90625 4.203125 7.90625 10.265625q0 2.96875 -2.6875 5.25q-2.171875 1.828125 -5.421875 2.796875q6.078125 3.25 9.09375 6.875q0.5 0.625 0.5 1.328125q0 0.8125 -0.59375 1.421875q-0.59375 0.609375 -1.390625 0.609375zm-12.453125 -25.828125l-2.890625 -0.234375l0.203125 2.359375q0.140625 1.453125 0.140625 2.375q0 1.5625 -0.265625 3.875l-0.40625 3.890625q0.28125 0 0.84375 0.03125q0.578125 0.015625 0.875 0.015625q4.984375 0 7.46875 -1.328125q1.09375 -0.609375 2.03125 -1.59375q1.03125 -1.09375 1.03125 -1.84375q0 -2.71875 -3.09375 -5.0625q-2.828125 -2.15625 -5.9375 -2.484375zm35.60547 14.140625q-0.546875 0 -2.375 -0.25q-0.15625 2.953125 -0.15625 10.328125q0 0.78125 -0.515625 1.328125q-0.5 0.53125 -1.265625 0.53125q-0.78125 0 -1.296875 -0.53125q-0.5 -0.546875 -0.5 -1.328125l0 -5.734375q0 -2.875 0.359375 -8.09375q0.390625 -5.640625 0.421875 -8.078125l0 -2.703125q0 -1.9375 0.234375 -2.8125q0.453125 -1.71875 1.921875 -1.484375q0.625 -0.1875 1.765625 -0.28125q1.15625 -0.109375 2.84375 -0.109375q3.5625 0 6.6875 2.4375q3.4375 2.703125 3.4375 6.484375q0 4.84375 -3.671875 7.71875q-3.28125 2.578125 -7.890625 2.578125zm0.984375 -15.5q-0.859375 0 -1.53125 0.046875q-0.671875 0.03125 -1.140625 0.109375l-0.046875 3.59375l-0.40625 7.765625l2.140625 0.25q3.28125 0 5.53125 -1.65625q2.46875 -1.8125 2.46875 -4.90625q0 -2.1875 -2.34375 -3.765625q-2.171875 -1.4375 -4.671875 -1.4375zm31.789062 26.171875q-2.203125 1.03125 -6.921875 1.859375q-4.359375 0.75 -7.109375 0.75q-1.984375 0 -2.84375 -0.59375q-1.171875 -0.828125 -1.171875 -3.015625l0.390625 -6.46875q0.515625 -8.9375 0.515625 -19.84375q0 -0.84375 0.546875 -1.421875q0.5625 -0.59375 1.390625 -0.59375q0.828125 0 1.390625 0.59375q0.5625 0.578125 0.5625 1.421875q0 11.03125 -0.53125 20.078125l-0.25 2.96875q-0.15625 1.625 -0.125 2.875q5.09375 0.0625 12.890625 -2.40625q0.328125 -0.09375 0.625 -0.09375q0.84375 0 1.40625 0.65625q0.484375 0.609375 0.484375 1.390625q0 1.25 -1.25 1.84375zm26.4375 1.390625q-1.796875 0 -3.125 -4.625q-0.515625 -1.75 -1.28125 -6.140625q-1.984375 0.265625 -5.203125 0.96875l-5.203125 1.078125q-0.96875 2.5625 -3.34375 7.484375q-0.625 1.09375 -1.6875 1.09375q-0.78125 0 -1.40625 -0.5625q-0.609375 -0.578125 -0.609375 -1.421875q0 -0.9375 2.953125 -7.125q-0.34375 -0.5 -0.34375 -1.171875q0 -1.578125 1.921875 -2.03125q2.21875 -4.171875 5.625 -9.609375q4.625 -7.40625 5.765625 -7.40625q1.53125 0 2.109375 2.15625l1.21875 6.5625l2.921875 13.578125l1.109375 3.078125q0.5625 1.578125 0.5625 2.109375q0 0.84375 -0.609375 1.40625q-0.59375 0.578125 -1.375 0.578125zm-6.90625 -22.328125l-5.578125 9.0q2.359375 -0.609375 7.171875 -1.46875l-1.59375 -7.53125zm34.632812 -3.25q-0.46875 0.75 -1.25 2.28125l-3.359375 8.3125q-1.953125 4.65625 -3.671875 8.15625l-2.4375 4.359375l-1.03125 2.109375q-0.65625 1.140625 -1.75 1.140625q-0.75 0 -1.375 -0.578125q-0.625 -0.5625 -0.625 -1.40625q0 -0.65625 1.828125 -4.15625l2.40625 -4.390625q-3.5 -4.515625 -4.53125 -7.109375q-0.875 -2.21875 -2.9375 -5.296875q-2.8125 -4.21875 -3.296875 -5.09375q-0.296875 -0.53125 -0.296875 -1.0625q0 -0.84375 0.609375 -1.40625q0.625 -0.578125 1.40625 -0.578125q0.953125 0 1.609375 0.90625l1.5625 2.421875q2.0625 3.078125 2.734375 4.1875q1.453125 2.40625 2.28125 4.453125q0.640625 1.625 2.75 4.4375l4.46875 -10.90625q0.765625 -1.34375 2.109375 -4.15625q0.546875 -1.328125 1.828125 -1.328125q0.78125 0 1.390625 0.546875q0.609375 0.546875 0.609375 1.40625q0 0.890625 -1.03125 2.75zm21.207031 0.640625q-1.25 0 -3.140625 -0.25l-3.140625 -0.40625q-0.453125 5.6875 -0.453125 10.859375q0 1.359375 0.078125 3.375q0.078125 2.015625 0.078125 3.375q0 1.84375 -0.140625 3.34375l6.15625 -0.078125q0.828125 0 1.375 0.578125q0.5625 0.578125 0.5625 1.421875q0 0.859375 -0.5625 1.4375q-0.546875 0.5625 -1.375 0.5625q-1.09375 0 -3.28125 0.0625q-2.1875 0.046875 -3.28125 0.046875q-1.28125 0 -3.859375 0.359375q-2.5625 0.359375 -3.875 0.359375q-0.8125 0 -1.375 -0.578125q-0.5625 -0.578125 -0.5625 -1.421875q0 -0.828125 0.5625 -1.40625q0.5625 -0.59375 1.375 -0.59375q1.265625 0 4.203125 -0.421875q0.1875 -1.578125 0.1875 -3.609375q0 -1.34375 -0.125 -3.28125q-0.125 -1.953125 -0.125 -3.28125q0 -4.515625 0.546875 -11.265625l-2.53125 0.078125l-2.546875 0.0625q-0.84375 0 -1.40625 -0.5625q-0.5625 -0.578125 -0.5625 -1.453125q0 -1.8125 1.828125 -2.0q1.59375 -0.15625 5.921875 -0.15625q3.890625 0 9.75 0.84375q1.734375 0.25 1.734375 2.09375q0 0.921875 -0.65625 1.46875q-0.59375 0.4375 -1.359375 0.4375zm33.26172 20.0q0 0.9375 -0.3125 3.125q-0.3125 1.984375 -2.078125 1.984375q-1.078125 0 -2.5625 -1.40625q-7.953125 -7.53125 -18.25 -21.703125l-0.09375 4.4375l-0.0625 4.453125q0 1.609375 0.0625 4.859375q0.078125 3.234375 0.078125 4.875q0 5.265625 -2.03125 5.265625q-1.078125 0 -1.703125 -0.6875q-0.5625 -0.609375 -0.5625 -1.453125q0 -0.8125 0.125 -2.46875q0.125 -1.671875 0.125 -2.484375q0 -1.21875 0.078125 -3.625q0.078125 -2.40625 0.078125 -3.625q0 -1.28125 -0.0625 -3.890625q-0.046875 -2.609375 -0.046875 -3.90625q0 -1.21875 -0.234375 -3.65625q-0.234375 -2.4375 -0.234375 -3.65625q0 -0.90625 0.765625 -1.640625q0.78125 -0.75 1.75 -0.75q1.03125 0 2.5625 2.265625q4.859375 7.28125 8.75 12.109375q4.625 5.71875 10.15625 10.9375q0.0625 -0.84375 0 -2.484375l-0.0625 -2.453125q0 -8.578125 -0.65625 -13.65625q-0.078125 -0.5 -0.53125 -2.046875q-0.390625 -1.328125 -0.390625 -2.078125q0 -2.265625 2.0625 -2.265625q3.40625 0 3.40625 12.6875q0 2.15625 -0.0625 6.46875q-0.0625 4.3125 -0.0625 6.46875zm27.171875 -7.46875q-1.203125 5.984375 -5.09375 9.578125q-3.875 3.578125 -9.140625 3.578125q-4.8125 0 -7.21875 -2.6875q-2.390625 -2.6875 -2.390625 -8.046875q0 -5.0625 2.390625 -10.421875q2.390625 -5.359375 6.140625 -8.671875q2.5 -2.203125 5.296875 -2.203125q1.78125 0 4.6875 1.171875q3.546875 1.40625 3.546875 3.109375q0 0.796875 -0.59375 1.421875q-0.578125 0.625 -1.390625 0.625q-0.4375 0 -1.21875 -0.484375q-2.984375 -1.8125 -5.03125 -1.8125q-1.46875 0 -3.0625 1.515625q-0.8125 0.765625 -2.3125 2.78125q-4.515625 5.96875 -4.515625 12.96875q0 3.671875 1.140625 5.125q1.234375 1.609375 4.53125 1.609375q3.5 0 6.078125 -2.203125q2.703125 -2.34375 3.78125 -6.703125q-5.40625 0.265625 -9.28125 2.09375q-0.4375 0.203125 -0.875 0.203125q-0.859375 0 -1.421875 -0.65625q-0.53125 -0.609375 -0.53125 -1.40625q0 -1.078125 1.03125 -1.71875q4.21875 -2.578125 14.5625 -2.578125q0.828125 0 1.390625 0.5625q0.578125 0.5625 0.578125 1.421875q0 1.28125 -1.078125 1.828125zm45.484375 13.4375q-1.046875 0 -1.734375 -1.09375q-0.578125 -0.9375 -1.046875 -3.125l-0.703125 -3.359375q-0.8125 -3.125 -2.546875 -13.796875l-3.90625 11.78125l-1.15625 3.703125q-0.703125 2.21875 -1.453125 3.625q-0.828125 1.484375 -2.21875 1.484375q-1.140625 0 -1.8125 -1.25q-0.421875 -0.828125 -0.78125 -2.09375l-0.5625 -2.171875q-1.96875 -6.890625 -3.484375 -14.765625l-0.703125 3.5l-2.515625 10.3125q-0.15625 1.8125 -0.96875 5.375q-0.59375 1.515625 -1.9375 1.515625q-0.953125 0 -1.53125 -0.671875q-0.484375 -0.59375 -0.484375 -1.453125q0 -3.265625 1.34375 -8.015625l2.15625 -7.859375l1.125 -6.15625q0.859375 -4.3125 1.828125 -5.640625q0.78125 -1.140625 1.921875 -1.140625q1.28125 0 1.90625 1.453125q0.75 1.734375 1.640625 7.078125q1.03125 6.4375 3.21875 13.90625q2.890625 -7.515625 5.0 -15.65625l0.578125 -2.859375q0.359375 -1.71875 0.921875 -2.765625q0.765625 -1.453125 2.09375 -1.453125q1.671875 0 2.5625 3.25q0.3125 1.109375 0.75 4.609375q1.15625 8.828125 2.875 15.078125l0.953125 3.359375q0.75 2.6875 0.75 3.3125q0 0.84375 -0.640625 1.40625q-0.625 0.578125 -1.4375 0.578125zm26.46875 -26.609375q-0.46875 0.75 -1.25 2.28125l-3.359375 8.3125q-1.953125 4.65625 -3.671875 8.15625l-2.4375 4.359375l-1.03125 2.109375q-0.65625 1.140625 -1.75 1.140625q-0.75 0 -1.375 -0.578125q-0.625 -0.5625 -0.625 -1.40625q0 -0.65625 1.828125 -4.15625l2.40625 -4.390625q-3.5 -4.515625 -4.53125 -7.109375q-0.875 -2.21875 -2.9375 -5.296875q-2.8125 -4.21875 -3.296875 -5.09375q-0.296875 -0.53125 -0.296875 -1.0625q0 -0.84375 0.609375 -1.40625q0.625 -0.578125 1.40625 -0.578125q0.953125 0 1.609375 0.90625l1.5625 2.421875q2.0625 3.078125 2.734375 4.1875q1.453125 2.40625 2.28125 4.453125q0.640625 1.625 2.75 4.4375l4.46875 -10.90625q0.765625 -1.34375 2.109375 -4.15625q0.546875 -1.328125 1.828125 -1.328125q0.78125 0 1.390625 0.546875q0.609375 0.546875 0.609375 1.40625q0 0.890625 -1.03125 2.75zm39.86328 13.171875q-1.203125 5.984375 -5.09375 9.578125q-3.875 3.578125 -9.140625 3.578125q-4.8125 0 -7.21875 -2.6875q-2.390625 -2.6875 -2.390625 -8.046875q0 -5.0625 2.390625 -10.421875q2.390625 -5.359375 6.140625 -8.671875q2.5 -2.203125 5.296875 -2.203125q1.78125 0 4.6875 1.171875q3.546875 1.40625 3.546875 3.109375q0 0.796875 -0.59375 1.421875q-0.578125 0.625 -1.390625 0.625q-0.4375 0 -1.21875 -0.484375q-2.984375 -1.8125 -5.03125 -1.8125q-1.46875 0 -3.0625 1.515625q-0.8125 0.765625 -2.3125 2.78125q-4.515625 5.96875 -4.515625 12.96875q0 3.671875 1.140625 5.125q1.234375 1.609375 4.53125 1.609375q3.5 0 6.078125 -2.203125q2.703125 -2.34375 3.78125 -6.703125q-5.40625 0.265625 -9.28125 2.09375q-0.4375 0.203125 -0.875 0.203125q-0.859375 0 -1.421875 -0.65625q-0.53125 -0.609375 -0.53125 -1.40625q0 -1.078125 1.03125 -1.71875q4.21875 -2.578125 14.5625 -2.578125q0.828125 0 1.390625 0.5625q0.578125 0.5625 0.578125 1.421875q0 1.28125 -1.078125 1.828125zm26.21875 12.40625q-1.796875 0 -3.125 -4.625q-0.515625 -1.75 -1.28125 -6.140625q-1.984375 0.265625 -5.203125 0.96875l-5.203125 1.078125q-0.96875 2.5625 -3.34375 7.484375q-0.625 1.09375 -1.6875 1.09375q-0.78125 0 -1.40625 -0.5625q-0.609375 -0.578125 -0.609375 -1.421875q0 -0.9375 2.953125 -7.125q-0.34375 -0.5 -0.34375 -1.171875q0 -1.578125 1.921875 -2.03125q2.21875 -4.171875 5.625 -9.609375q4.625 -7.40625 5.765625 -7.40625q1.53125 0 2.109375 2.15625l1.21875 6.5625l2.921875 13.578125l1.109375 3.078125q0.5625 1.578125 0.5625 2.109375q0 0.84375 -0.609375 1.40625q-0.59375 0.578125 -1.375 0.578125zm-6.90625 -22.328125l-5.578125 9.0q2.359375 -0.609375 7.171875 -1.46875l-1.59375 -7.53125zm43.476562 23.359375q-1.046875 0 -1.734375 -1.09375q-0.578125 -0.9375 -1.046875 -3.125l-0.703125 -3.359375q-0.8125 -3.125 -2.546875 -13.796875l-3.90625 11.78125l-1.15625 3.703125q-0.703125 2.21875 -1.453125 3.625q-0.828125 1.484375 -2.21875 1.484375q-1.140625 0 -1.8125 -1.25q-0.421875 -0.828125 -0.78125 -2.09375l-0.5625 -2.171875q-1.96875 -6.890625 -3.484375 -14.765625l-0.703125 3.5l-2.515625 10.3125q-0.15625 1.8125 -0.96875 5.375q-0.59375 1.515625 -1.9375 1.515625q-0.953125 0 -1.53125 -0.671875q-0.484375 -0.59375 -0.484375 -1.453125q0 -3.265625 1.34375 -8.015625l2.15625 -7.859375l1.125 -6.15625q0.859375 -4.3125 1.828125 -5.640625q0.78125 -1.140625 1.921875 -1.140625q1.28125 0 1.90625 1.453125q0.75 1.734375 1.640625 7.078125q1.03125 6.4375 3.21875 13.90625q2.890625 -7.515625 5.0 -15.65625l0.578125 -2.859375q0.359375 -1.71875 0.921875 -2.765625q0.765625 -1.453125 2.09375 -1.453125q1.671875 0 2.5625 3.25q0.3125 1.109375 0.75 4.609375q1.15625 8.828125 2.875 15.078125l0.953125 3.359375q0.75 2.6875 0.75 3.3125q0 0.84375 -0.640625 1.40625q-0.625 0.578125 -1.4375 0.578125zm25.359375 -27.921875q-0.28125 0 -0.609375 -0.09375q-3.296875 -0.9375 -6.359375 -0.9375q-1.609375 0 -3.5 0.296875q-1.890625 0.296875 -4.078125 0.890625q0.171875 1.28125 0.171875 2.03125q0 2.71875 -0.328125 7.46875l8.546875 -0.828125q3.765625 -0.390625 4.625 -0.390625q0.859375 0 1.4375 0.546875q0.59375 0.546875 0.59375 1.46875q0 1.78125 -1.796875 2.0l-4.640625 0.40625l-9.03125 0.8125q-0.078125 1.390625 -0.125 2.640625q-0.046875 1.234375 -0.046875 2.3125q0 4.3125 0.625 5.078125q0.46875 0.546875 3.0625 0.546875q1.21875 0 3.640625 -0.0625q2.4375 -0.078125 3.671875 -0.078125q0.390625 0 1.140625 -0.125q0.765625 -0.125 1.140625 -0.125q2.078125 0 2.078125 2.03125q0 1.640625 -1.671875 1.96875q-1.828125 0.375 -7.9375 0.375q-6.0625 0 -7.78125 -1.609375q-1.875 -1.734375 -1.875 -8.0q0 -1.25 0.0625 -2.734375q0.0625 -1.484375 0.15625 -3.203125q-0.21875 -0.453125 -0.21875 -0.96875q0 -0.65625 0.375 -1.1875q0.390625 -5.640625 0.390625 -8.34375q0 -0.71875 -0.203125 -2.109375q-0.1875 -1.40625 -0.1875 -2.125q0 -2.328125 1.953125 -2.328125q0.8125 0 1.40625 0.578125q2.34375 -0.625 4.421875 -0.9375q2.078125 -0.3125 3.921875 -0.3125q4.734375 0 7.578125 1.125q1.296875 0.53125 1.296875 1.875q0 0.78125 -0.5 1.390625q-0.5625 0.65625 -1.40625 0.65625z" fill-rule="nonzero"/></g></svg>